mtllib prt0002.mtl

v  117.185144 0.000000 -230.732449
v  117.185144 0.000000 -230.732449
v  117.185144 0.000000 -230.732449
v  112.917040 0.000000 -249.431600
v  112.917040 0.000000 -249.431600
v  100.959231 0.000000 -264.426451
v  100.959231 0.000000 -264.426451
v  83.677735 0.000000 -272.748738
v  83.677735 0.000000 -272.748738
v  64.499068 0.000000 -272.748738
v  64.499068 0.000000 -272.748738
v  47.217571 0.000000 -264.426451
v  47.217571 0.000000 -264.426451
v  35.259762 0.000000 -249.431600
v  35.259762 0.000000 -249.431600
v  30.991659 0.000000 -230.732449
v  30.991659 0.000000 -230.732449
v  30.991659 0.000000 -230.732449
v  35.259762 0.000000 -212.033298
v  35.259762 0.000000 -212.033298
v  47.217571 0.000000 -197.038447
v  47.217571 0.000000 -197.038447
v  64.499068 0.000000 -188.716161
v  64.499068 0.000000 -188.716161
v  83.677735 0.000000 -188.716161
v  83.677735 0.000000 -188.716161
v  100.959231 0.000000 -197.038447
v  100.959231 0.000000 -197.038447
v  112.917040 0.000000 -212.033298
v  112.917040 0.000000 -212.033298
v  0.000000 0.000000 0.000000
v  0.000000 0.000000 0.000000
v  0.000000 0.000000 0.000000
v  198.980277 0.000000 0.000000
v  198.980277 0.000000 0.000000
v  198.980277 0.000000 0.000000
v  198.980277 0.000000 -148.176802
v  198.980277 0.000000 -148.176802
v  198.980277 0.000000 -148.176802
v  0.000000 0.000000 -148.176802
v  0.000000 0.000000 -148.176802
v  0.000000 0.000000 -148.176802
v  117.185144 236.400000 -230.732449
v  117.185144 236.400000 -230.732449
v  117.185144 236.400000 -230.732449
v  112.917040 236.400000 -212.033298
v  112.917040 236.400000 -212.033298
v  100.959231 236.400000 -197.038447
v  100.959231 236.400000 -197.038447
v  83.677735 236.400000 -188.716161
v  83.677735 236.400000 -188.716161
v  64.499068 236.400000 -188.716161
v  64.499068 236.400000 -188.716161
v  47.217571 236.400000 -197.038447
v  47.217571 236.400000 -197.038447
v  35.259762 236.400000 -212.033298
v  35.259762 236.400000 -212.033298
v  30.991659 236.400000 -230.732449
v  30.991659 236.400000 -230.732449
v  30.991659 236.400000 -230.732449
v  35.259762 236.400000 -249.431600
v  35.259762 236.400000 -249.431600
v  47.217571 236.400000 -264.426451
v  47.217571 236.400000 -264.426451
v  64.499068 236.400000 -272.748738
v  64.499068 236.400000 -272.748738
v  83.677735 236.400000 -272.748738
v  83.677735 236.400000 -272.748738
v  100.959231 236.400000 -264.426451
v  100.959231 236.400000 -264.426451
v  112.917040 236.400000 -249.431600
v  112.917040 236.400000 -249.431600
v  0.000000 236.400000 0.000000
v  0.000000 236.400000 0.000000
v  0.000000 236.400000 0.000000
v  0.000000 236.400000 -148.176802
v  0.000000 236.400000 -148.176802
v  0.000000 236.400000 -148.176802
v  198.980277 236.400000 -148.176802
v  198.980277 236.400000 -148.176802
v  198.980277 236.400000 -148.176802
v  198.980277 236.400000 0.000000
v  198.980277 236.400000 0.000000
v  198.980277 236.400000 0.000000

vt  0.154048 0.588928 0.000000
vt  0.154048 0.588928 0.000000
vt  0.154048 0.588928 0.000000
vt  0.085489 0.567479 0.000000
vt  0.085489 0.567479 0.000000
vt  0.030513 0.507383 0.000000
vt  0.030513 0.507383 0.000000
vt  0.000000 0.420533 0.000000
vt  0.000000 0.420533 0.000000
vt  0.000000 0.324148 0.000000
vt  0.000000 0.324148 0.000000
vt  0.030513 0.237298 0.000000
vt  0.030513 0.237298 0.000000
vt  0.085489 0.177202 0.000000
vt  0.085489 0.177202 0.000000
vt  0.154048 0.155752 0.000000
vt  0.154048 0.155752 0.000000
vt  0.154048 0.155752 0.000000
vt  0.222606 0.177202 0.000000
vt  0.222606 0.177202 0.000000
vt  0.277583 0.237298 0.000000
vt  0.277583 0.237298 0.000000
vt  0.308095 0.324148 0.000000
vt  0.308095 0.324148 0.000000
vt  0.308095 0.420533 0.000000
vt  0.308095 0.420533 0.000000
vt  0.277583 0.507383 0.000000
vt  0.277583 0.507383 0.000000
vt  0.222606 0.567479 0.000000
vt  0.222606 0.567479 0.000000
vt  1.000000 0.000000 0.000000
vt  1.000000 0.000000 0.000000
vt  1.000000 0.000000 0.000000
vt  1.000000 1.000000 0.000000
vt  1.000000 1.000000 0.000000
vt  1.000000 1.000000 0.000000
vt  0.456728 1.000000 0.000000
vt  0.456728 1.000000 0.000000
vt  0.456728 1.000000 0.000000
vt  0.456728 0.000000 0.000000
vt  0.456728 0.000000 0.000000
vt  0.456728 0.000000 0.000000
vt  0.154048 0.588928 0.000000
vt  0.154048 0.588928 0.000000
vt  0.154048 0.588928 0.000000
vt  0.222606 0.567479 0.000000
vt  0.222606 0.567479 0.000000
vt  0.277583 0.507383 0.000000
vt  0.277583 0.507383 0.000000
vt  0.308095 0.420533 0.000000
vt  0.308095 0.420533 0.000000
vt  0.308095 0.324148 0.000000
vt  0.308095 0.324148 0.000000
vt  0.277583 0.237298 0.000000
vt  0.277583 0.237298 0.000000
vt  0.222606 0.177202 0.000000
vt  0.222606 0.177202 0.000000
vt  0.154048 0.155752 0.000000
vt  0.154048 0.155752 0.000000
vt  0.154048 0.155752 0.000000
vt  0.085489 0.177202 0.000000
vt  0.085489 0.177202 0.000000
vt  0.030513 0.237298 0.000000
vt  0.030513 0.237298 0.000000
vt  0.000000 0.324148 0.000000
vt  0.000000 0.324148 0.000000
vt  0.000000 0.420533 0.000000
vt  0.000000 0.420533 0.000000
vt  0.030513 0.507383 0.000000
vt  0.030513 0.507383 0.000000
vt  0.085489 0.567479 0.000000
vt  0.085489 0.567479 0.000000
vt  1.000000 0.000000 0.000000
vt  1.000000 0.000000 0.000000
vt  1.000000 0.000000 0.000000
vt  0.456728 0.000000 0.000000
vt  0.456728 0.000000 0.000000
vt  0.456728 0.000000 0.000000
vt  0.456728 1.000000 0.000000
vt  0.456728 1.000000 0.000000
vt  0.456728 1.000000 0.000000
vt  1.000000 1.000000 0.000000
vt  1.000000 1.000000 0.000000
vt  1.000000 1.000000 0.000000

vn  0.000000 -1.000000 0.000000
vn  1.000000 0.000000 0.000000
vn  1.000000 0.000000 0.000000
vn  0.000000 -1.000000 0.000000
vn  0.900969 0.000000 -0.433884
vn  0.000000 -1.000000 0.000000
vn  0.623490 0.000000 -0.781831
vn  0.000000 -1.000000 0.000000
vn  0.222521 0.000000 -0.974928
vn  0.000000 -1.000000 0.000000
vn  -0.222521 0.000000 -0.974928
vn  0.000000 -1.000000 0.000000
vn  -0.623490 0.000000 -0.781831
vn  0.000000 -1.000000 0.000000
vn  -0.900969 0.000000 -0.433884
vn  0.000000 -1.000000 0.000000
vn  -1.000000 0.000000 -0.000000
vn  -1.000000 0.000000 -0.000000
vn  0.000000 -1.000000 0.000000
vn  -0.900969 0.000000 0.433884
vn  0.000000 -1.000000 0.000000
vn  -0.623490 0.000000 0.781831
vn  0.000000 -1.000000 0.000000
vn  -0.222521 0.000000 0.974928
vn  0.000000 -1.000000 0.000000
vn  0.222521 0.000000 0.974928
vn  0.000000 -1.000000 0.000000
vn  0.623490 0.000000 0.781831
vn  0.000000 -1.000000 0.000000
vn  0.900969 0.000000 0.433884
vn  0.000000 -1.000000 0.000000
vn  0.000000 0.000000 1.000000
vn  -1.000000 0.000000 0.000000
vn  0.000000 -1.000000 0.000000
vn  0.000000 0.000000 1.000000
vn  1.000000 0.000000 0.000000
vn  0.000000 -1.000000 0.000000
vn  1.000000 0.000000 0.000000
vn  0.000000 0.000000 -1.000000
vn  0.000000 -1.000000 0.000000
vn  0.000000 0.000000 -1.000000
vn  -1.000000 0.000000 0.000000
vn  0.000000 1.000000 0.000000
vn  1.000000 0.000000 0.000000
vn  1.000000 0.000000 0.000000
vn  0.000000 1.000000 0.000000
vn  0.900969 0.000000 0.433884
vn  0.000000 1.000000 0.000000
vn  0.623490 0.000000 0.781831
vn  0.000000 1.000000 0.000000
vn  0.222521 0.000000 0.974928
vn  0.000000 1.000000 0.000000
vn  -0.222521 0.000000 0.974928
vn  0.000000 1.000000 0.000000
vn  -0.623490 0.000000 0.781831
vn  0.000000 1.000000 0.000000
vn  -0.900969 0.000000 0.433884
vn  0.000000 1.000000 0.000000
vn  -1.000000 0.000000 -0.000000
vn  -1.000000 0.000000 -0.000000
vn  0.000000 1.000000 0.000000
vn  -0.900969 0.000000 -0.433884
vn  0.000000 1.000000 0.000000
vn  -0.623490 0.000000 -0.781831
vn  0.000000 1.000000 0.000000
vn  -0.222521 0.000000 -0.974928
vn  0.000000 1.000000 0.000000
vn  0.222521 0.000000 -0.974928
vn  0.000000 1.000000 0.000000
vn  0.623490 0.000000 -0.781831
vn  0.000000 1.000000 0.000000
vn  0.900969 0.000000 -0.433884
vn  0.000000 1.000000 0.000000
vn  0.000000 0.000000 1.000000
vn  -1.000000 0.000000 0.000000
vn  0.000000 1.000000 0.000000
vn  0.000000 0.000000 -1.000000
vn  -1.000000 0.000000 0.000000
vn  0.000000 1.000000 0.000000
vn  1.000000 0.000000 0.000000
vn  0.000000 0.000000 -1.000000
vn  0.000000 1.000000 0.000000
vn  0.000000 0.000000 1.000000
vn  1.000000 0.000000 0.000000


g 0
g 1
usemtl DEFAULT_MTL
f 14/14/14  4/4/4  1/1/1
f 44/44/44  2/2/2  5/5/5
f 16/16/16  14/14/14  1/1/1
f 29/29/29  16/16/16  1/1/1
f 47/47/47  30/30/30  3/3/3
f 47/47/47  3/3/3  45/45/45
f 12/12/12  6/6/6  4/4/4
f 72/72/72  5/5/5  7/7/7
f 14/14/14  12/12/12  4/4/4
f 72/72/72  44/44/44  5/5/5
f 10/10/10  8/8/8  6/6/6
f 70/70/70  7/7/7  9/9/9
f 12/12/12  10/10/10  6/6/6
f 72/72/72  7/7/7  70/70/70
f 68/68/68  9/9/9  11/11/11
f 70/70/70  9/9/9  68/68/68
f 66/66/66  11/11/11  13/13/13
f 68/68/68  11/11/11  66/66/66
f 64/64/64  13/13/13  15/15/15
f 66/66/66  13/13/13  64/64/64
f 62/62/62  15/15/15  17/17/17
f 64/64/64  15/15/15  62/62/62
f 29/29/29  19/19/19  16/16/16
f 60/60/60  18/18/18  20/20/20
f 62/62/62  17/17/17  59/59/59
f 27/27/27  21/21/21  19/19/19
f 57/57/57  20/20/20  22/22/22
f 29/29/29  27/27/27  19/19/19
f 60/60/60  20/20/20  57/57/57
f 25/25/25  23/23/23  21/21/21
f 55/55/55  22/22/22  24/24/24
f 27/27/27  25/25/25  21/21/21
f 57/57/57  22/22/22  55/55/55
f 53/53/53  24/24/24  26/26/26
f 55/55/55  24/24/24  53/53/53
f 51/51/51  26/26/26  28/28/28
f 53/53/53  26/26/26  51/51/51
f 49/49/49  28/28/28  30/30/30
f 51/51/51  28/28/28  49/49/49
f 49/49/49  30/30/30  47/47/47
f 40/40/40  34/34/34  31/31/31
f 83/83/83  32/32/32  35/35/35
f 75/75/75  42/42/42  33/33/33
f 83/83/83  74/74/74  32/32/32
f 40/40/40  37/37/37  34/34/34
f 80/80/80  36/36/36  38/38/38
f 84/84/84  36/36/36  80/80/80
f 77/77/77  39/39/39  41/41/41
f 81/81/81  39/39/39  77/77/77
f 78/78/78  42/42/42  75/75/75
f 56/56/56  46/46/46  43/43/43
f 58/58/58  56/56/56  43/43/43
f 71/71/71  58/58/58  43/43/43
f 54/54/54  48/48/48  46/46/46
f 56/56/56  54/54/54  46/46/46
f 52/52/52  50/50/50  48/48/48
f 54/54/54  52/52/52  48/48/48
f 71/71/71  61/61/61  58/58/58
f 69/69/69  63/63/63  61/61/61
f 71/71/71  69/69/69  61/61/61
f 67/67/67  65/65/65  63/63/63
f 69/69/69  67/67/67  63/63/63
f 79/79/79  76/76/76  73/73/73
f 82/82/82  79/79/79  73/73/73
